<svg width="48" height="48" viewBox="0 0 48 48" fill="none" xmlns="http://www.w3.org/2000/svg">
<path d="M34 26H14V22H34V26ZM36 14H34C30.738 14 27.87 15.584 26.046 18H36C38.206 18 40 19.794 40 22V26C40 28.206 38.206 30 36 30H26.046C27.872 32.416 30.74 34 34 34H36C38.1217 34 40.1566 33.1571 41.6568 31.6569C43.1571 30.1566 44 28.1217 44 26V22C44 19.8783 43.1571 17.8434 41.6568 16.3431C40.1566 14.8429 38.1217 14 36 14ZM4 22V26C4 28.1217 4.84285 30.1566 6.34315 31.6569C7.84344 33.1571 9.87827 34 12 34H14C17.26 34 20.13 32.416 21.954 30H12C9.794 30 8 28.206 8 26V22C8 19.794 9.794 18 12 18H21.954C20.13 15.584 17.262 14 14 14H12C9.87827 14 7.84344 14.8429 6.34315 16.3431C4.84285 17.8434 4 19.8783 4 22Z" fill="#002395"/>
</svg>
